<svg xmlns="http://www.w3.org/2000/svg" viewBox="0 0 64 64">
<rect width="64" height="64" rx="12" fill="#10171D"/>
<g fill="#E8A24A">
<circle cx="32" cy="9" r="2.1"/><circle cx="43" cy="11.4" r="1.7"/><circle cx="51.5" cy="19" r="2"/><circle cx="55.5" cy="29.5" r="1.6"/><circle cx="55" cy="40.5" r="2.1"/><circle cx="49.5" cy="49.5" r="1.7"/><circle cx="40.5" cy="55" r="2"/><circle cx="30" cy="55.7" r="1.6"/><circle cx="20" cy="52" r="2.1"/><circle cx="12.5" cy="44.5" r="1.7"/><circle cx="9" cy="34.5" r="2"/><circle cx="9.5" cy="23.5" r="1.6"/><circle cx="14.5" cy="14.5" r="2.1"/><circle cx="22.5" cy="9.5" r="1.7"/>
<circle cx="32" cy="18" r="1.5" opacity=".75"/><circle cx="41" cy="21" r="1.2" opacity=".7"/><circle cx="46" cy="30" r="1.4" opacity=".75"/><circle cx="45" cy="40" r="1.2" opacity=".7"/><circle cx="37" cy="46" r="1.4" opacity=".75"/><circle cx="27" cy="46" r="1.2" opacity=".7"/><circle cx="19.5" cy="39.5" r="1.4" opacity=".75"/><circle cx="18" cy="29.5" r="1.2" opacity=".7"/><circle cx="23" cy="21.5" r="1.4" opacity=".75"/>
</g>
</svg>
