<svg xmlns="http://www.w3.org/2000/svg" viewBox="0 0 120 120" width="120" height="120"><circle cx="107.75" cy="60.00" r="0.54" fill="#E8A24A" opacity="0.95"/><circle cx="107.43" cy="62.62" r="0.62" fill="#E8A24A" opacity="0.95"/><circle cx="107.92" cy="65.30" r="0.70" fill="#E8A24A" opacity="0.94"/><circle cx="106.74" cy="67.80" r="0.78" fill="#E8A24A" opacity="0.94"/><circle cx="106.89" cy="70.51" r="0.86" fill="#E8A24A" opacity="0.93"/><circle cx="106.00" cy="73.01" r="0.93" fill="#E8A24A" opacity="0.92"/><circle cx="104.80" cy="75.38" r="1.00" fill="#E8A24A" opacity="0.90"/><circle cx="104.48" cy="78.07" r="1.07" fill="#E8A24A" opacity="0.89"/><circle cx="102.81" cy="80.20" r="1.14" fill="#E8A24A" opacity="0.87"/><circle cx="102.13" cy="82.80" r="1.20" fill="#E8A24A" opacity="0.85"/><circle cx="100.36" cy="84.81" r="1.26" fill="#E8A24A" opacity="0.82"/><circle cx="98.96" cy="87.01" r="1.31" fill="#E8A24A" opacity="0.80"/><circle cx="97.79" cy="89.42" r="1.35" fill="#E8A24A" opacity="0.77"/><circle cx="96.55" cy="91.83" r="1.39" fill="#E8A24A" opacity="0.74"/><circle cx="94.02" cy="93.09" r="1.43" fill="#E8A24A" opacity="0.71"/><circle cx="92.24" cy="95.02" r="1.46" fill="#E8A24A" opacity="0.68"/><circle cx="90.63" cy="97.19" r="1.48" fill="#E8A24A" opacity="0.64"/><circle cx="88.81" cy="99.20" r="1.50" fill="#E8A24A" opacity="0.61"/><circle cx="86.31" cy="100.28" r="1.51" fill="#E8A24A" opacity="0.57"/><circle cx="83.93" cy="101.44" r="1.51" fill="#E8A24A" opacity="0.54"/><circle cx="81.98" cy="103.44" r="1.51" fill="#E8A24A" opacity="0.50"/><circle cx="79.02" cy="103.36" r="1.50" fill="#E8A24A" opacity="0.46"/><circle cx="77.01" cy="105.44" r="1.48" fill="#E8A24A" opacity="0.42"/><circle cx="74.24" cy="105.52" r="1.46" fill="#E8A24A" opacity="0.38"/><circle cx="71.66" cy="106.03" r="1.43" fill="#E8A24A" opacity="0.36"/><circle cx="69.10" cy="106.57" r="1.39" fill="#E8A24A" opacity="0.40"/><circle cx="66.56" cy="107.27" r="1.35" fill="#E8A24A" opacity="0.44"/><circle cx="64.00" cy="108.29" r="1.31" fill="#E8A24A" opacity="0.48"/><circle cx="61.31" cy="107.52" r="1.26" fill="#E8A24A" opacity="0.52"/><circle cx="58.67" cy="108.10" r="1.20" fill="#E8A24A" opacity="0.55"/><circle cx="56.02" cy="108.04" r="1.14" fill="#E8A24A" opacity="0.59"/><circle cx="53.43" cy="107.36" r="1.07" fill="#E8A24A" opacity="0.63"/><circle cx="50.78" cy="107.18" r="1.00" fill="#E8A24A" opacity="0.66"/><circle cx="48.37" cy="105.92" r="0.93" fill="#E8A24A" opacity="0.69"/><circle cx="45.86" cy="105.21" r="0.86" fill="#E8A24A" opacity="0.73"/><circle cx="43.32" cy="104.56" r="0.78" fill="#E8A24A" opacity="0.76"/><circle cx="40.61" cy="104.20" r="0.70" fill="#E8A24A" opacity="0.78"/><circle cx="38.37" cy="102.74" r="0.62" fill="#E8A24A" opacity="0.81"/><circle cx="36.13" cy="101.34" r="0.54" fill="#E8A24A" opacity="0.84"/><circle cx="33.68" cy="100.29" r="0.62" fill="#E8A24A" opacity="0.86"/><circle cx="31.61" cy="98.62" r="0.70" fill="#E8A24A" opacity="0.88"/><circle cx="29.67" cy="96.83" r="0.78" fill="#E8A24A" opacity="0.90"/><circle cx="27.20" cy="95.63" r="0.86" fill="#E8A24A" opacity="0.91"/><circle cx="25.39" cy="93.67" r="0.93" fill="#E8A24A" opacity="0.92"/><circle cx="24.08" cy="91.28" r="1.00" fill="#E8A24A" opacity="0.93"/><circle cx="22.04" cy="89.55" r="1.07" fill="#E8A24A" opacity="0.94"/><circle cx="20.52" cy="87.37" r="1.14" fill="#E8A24A" opacity="0.95"/><circle cx="18.65" cy="85.42" r="1.20" fill="#E8A24A" opacity="0.95"/><circle cx="17.49" cy="83.00" r="1.26" fill="#E8A24A" opacity="0.95"/><circle cx="16.87" cy="80.35" r="1.31" fill="#E8A24A" opacity="0.95"/><circle cx="14.89" cy="78.32" r="1.35" fill="#E8A24A" opacity="0.94"/><circle cx="15.12" cy="75.41" r="1.39" fill="#E8A24A" opacity="0.93"/><circle cx="13.92" cy="73.03" r="1.43" fill="#E8A24A" opacity="0.92"/><circle cx="12.80" cy="70.58" r="1.46" fill="#E8A24A" opacity="0.91"/><circle cx="13.15" cy="67.82" r="1.48" fill="#E8A24A" opacity="0.90"/><circle cx="12.31" cy="65.28" r="1.50" fill="#E8A24A" opacity="0.88"/><circle cx="12.74" cy="62.61" r="1.51" fill="#E8A24A" opacity="0.86"/><circle cx="11.76" cy="60.00" r="1.51" fill="#E8A24A" opacity="0.84"/><circle cx="11.69" cy="57.33" r="1.51" fill="#E8A24A" opacity="0.81"/><circle cx="12.19" cy="54.71" r="1.50" fill="#E8A24A" opacity="0.78"/><circle cx="12.12" cy="52.01" r="1.48" fill="#E8A24A" opacity="0.76"/><circle cx="13.42" cy="49.56" r="1.46" fill="#E8A24A" opacity="0.73"/><circle cx="13.54" cy="46.86" r="1.43" fill="#E8A24A" opacity="0.69"/><circle cx="14.47" cy="44.37" r="1.39" fill="#E8A24A" opacity="0.66"/><circle cx="15.42" cy="41.89" r="1.35" fill="#E8A24A" opacity="0.63"/><circle cx="16.65" cy="39.54" r="1.31" fill="#E8A24A" opacity="0.59"/><circle cx="17.35" cy="36.92" r="1.26" fill="#E8A24A" opacity="0.55"/><circle cx="18.56" cy="34.53" r="1.20" fill="#E8A24A" opacity="0.52"/><circle cx="20.59" cy="32.67" r="1.14" fill="#E8A24A" opacity="0.48"/><circle cx="21.93" cy="30.37" r="1.07" fill="#E8A24A" opacity="0.44"/><circle cx="24.28" cy="28.89" r="1.00" fill="#E8A24A" opacity="0.40"/><circle cx="25.39" cy="26.33" r="0.93" fill="#E8A24A" opacity="0.36"/><circle cx="27.35" cy="24.53" r="0.86" fill="#E8A24A" opacity="0.38"/><circle cx="29.03" cy="22.40" r="0.78" fill="#E8A24A" opacity="0.42"/><circle cx="31.30" cy="20.95" r="0.70" fill="#E8A24A" opacity="0.46"/><circle cx="33.92" cy="20.08" r="0.62" fill="#E8A24A" opacity="0.50"/><circle cx="36.08" cy="18.57" r="0.54" fill="#E8A24A" opacity="0.54"/><circle cx="38.22" cy="16.96" r="0.62" fill="#E8A24A" opacity="0.57"/><circle cx="40.99" cy="16.67" r="0.70" fill="#E8A24A" opacity="0.61"/><circle cx="43.19" cy="15.10" r="0.78" fill="#E8A24A" opacity="0.64"/><circle cx="45.81" cy="14.64" r="0.86" fill="#E8A24A" opacity="0.68"/><circle cx="48.35" cy="14.00" r="0.93" fill="#E8A24A" opacity="0.71"/><circle cx="50.92" cy="13.51" r="1.00" fill="#E8A24A" opacity="0.74"/><circle cx="53.35" cy="12.07" r="1.07" fill="#E8A24A" opacity="0.77"/><circle cx="56.08" cy="12.70" r="1.14" fill="#E8A24A" opacity="0.80"/><circle cx="58.69" cy="12.38" r="1.20" fill="#E8A24A" opacity="0.82"/><circle cx="61.32" cy="12.18" r="1.26" fill="#E8A24A" opacity="0.85"/><circle cx="64.01" cy="11.63" r="1.31" fill="#E8A24A" opacity="0.87"/><circle cx="66.51" cy="13.05" r="1.35" fill="#E8A24A" opacity="0.89"/><circle cx="69.19" cy="12.96" r="1.39" fill="#E8A24A" opacity="0.90"/><circle cx="71.80" cy="13.40" r="1.43" fill="#E8A24A" opacity="0.92"/><circle cx="74.49" cy="13.66" r="1.46" fill="#E8A24A" opacity="0.93"/><circle cx="76.99" cy="14.62" r="1.48" fill="#E8A24A" opacity="0.94"/><circle cx="79.49" cy="15.56" r="1.50" fill="#E8A24A" opacity="0.94"/><circle cx="81.53" cy="17.46" r="1.51" fill="#E8A24A" opacity="0.95"/><circle cx="83.94" cy="18.54" r="1.51" fill="#E8A24A" opacity="0.95"/><circle cx="86.14" cy="19.99" r="1.51" fill="#E8A24A" opacity="0.95"/><circle cx="88.75" cy="20.88" r="1.50" fill="#E8A24A" opacity="0.94"/><circle cx="90.93" cy="22.44" r="1.48" fill="#E8A24A" opacity="0.94"/><circle cx="92.17" cy="25.06" r="1.46" fill="#E8A24A" opacity="0.93"/><circle cx="94.07" cy="26.85" r="1.43" fill="#E8A24A" opacity="0.92"/><circle cx="95.91" cy="28.73" r="1.39" fill="#E8A24A" opacity="0.90"/><circle cx="97.58" cy="30.75" r="1.35" fill="#E8A24A" opacity="0.89"/><circle cx="99.43" cy="32.66" r="1.31" fill="#E8A24A" opacity="0.87"/><circle cx="101.00" cy="34.80" r="1.26" fill="#E8A24A" opacity="0.85"/><circle cx="101.91" cy="37.32" r="1.20" fill="#E8A24A" opacity="0.82"/><circle cx="102.76" cy="39.82" r="1.14" fill="#E8A24A" opacity="0.80"/><circle cx="104.36" cy="41.98" r="1.07" fill="#E8A24A" opacity="0.77"/><circle cx="105.22" cy="44.48" r="1.00" fill="#E8A24A" opacity="0.74"/><circle cx="106.28" cy="46.91" r="0.93" fill="#E8A24A" opacity="0.71"/><circle cx="107.47" cy="49.36" r="0.86" fill="#E8A24A" opacity="0.68"/><circle cx="107.62" cy="52.05" r="0.78" fill="#E8A24A" opacity="0.64"/><circle cx="107.73" cy="54.72" r="0.70" fill="#E8A24A" opacity="0.61"/><circle cx="108.10" cy="57.35" r="0.62" fill="#E8A24A" opacity="0.57"/><circle cx="105.58" cy="66.89" r="1.45" fill="#E8A24A" opacity="0.94"/><circle cx="104.23" cy="69.32" r="1.48" fill="#E8A24A" opacity="0.93"/><circle cx="104.79" cy="72.17" r="1.50" fill="#E8A24A" opacity="0.92"/><circle cx="103.85" cy="74.68" r="1.51" fill="#E8A24A" opacity="0.91"/><circle cx="103.06" cy="77.23" r="1.51" fill="#E8A24A" opacity="0.89"/><circle cx="101.90" cy="79.63" r="1.51" fill="#E8A24A" opacity="0.87"/><circle cx="100.18" cy="81.74" r="1.50" fill="#E8A24A" opacity="0.85"/><circle cx="98.87" cy="84.02" r="1.48" fill="#E8A24A" opacity="0.82"/><circle cx="97.07" cy="85.98" r="1.45" fill="#E8A24A" opacity="0.80"/><circle cx="96.12" cy="88.54" r="1.42" fill="#E8A24A" opacity="0.77"/><circle cx="93.80" cy="90.03" r="1.38" fill="#E8A24A" opacity="0.74"/><circle cx="92.02" cy="91.93" r="1.34" fill="#E8A24A" opacity="0.70"/><circle cx="90.26" cy="93.87" r="1.29" fill="#E8A24A" opacity="0.67"/><circle cx="88.21" cy="95.51" r="1.23" fill="#E8A24A" opacity="0.63"/><circle cx="86.27" cy="97.28" r="1.17" fill="#E8A24A" opacity="0.60"/><circle cx="83.86" cy="98.38" r="1.10" fill="#E8A24A" opacity="0.56"/><circle cx="81.57" cy="99.63" r="1.03" fill="#E8A24A" opacity="0.52"/><circle cx="79.35" cy="101.00" r="0.96" fill="#E8A24A" opacity="0.48"/><circle cx="76.92" cy="101.98" r="0.88" fill="#E8A24A" opacity="0.44"/><circle cx="74.60" cy="103.25" r="0.80" fill="#E8A24A" opacity="0.40"/><circle cx="71.95" cy="103.55" r="0.72" fill="#E8A24A" opacity="0.35"/><circle cx="69.68" cy="105.36" r="0.64" fill="#E8A24A" opacity="0.39"/><circle cx="66.99" cy="105.47" r="0.55" fill="#E8A24A" opacity="0.43"/><circle cx="64.30" cy="105.13" r="0.61" fill="#E8A24A" opacity="0.47"/><circle cx="61.70" cy="105.45" r="0.69" fill="#E8A24A" opacity="0.51"/><circle cx="59.07" cy="105.61" r="0.78" fill="#E8A24A" opacity="0.55"/><circle cx="56.45" cy="105.51" r="0.86" fill="#E8A24A" opacity="0.59"/><circle cx="53.88" cy="104.88" r="0.93" fill="#E8A24A" opacity="0.63"/><circle cx="51.10" cy="105.48" r="1.01" fill="#E8A24A" opacity="0.66"/><circle cx="48.44" cy="105.09" r="1.08" fill="#E8A24A" opacity="0.70"/><circle cx="46.10" cy="103.63" r="1.15" fill="#E8A24A" opacity="0.73"/><circle cx="43.60" cy="102.78" r="1.21" fill="#E8A24A" opacity="0.76"/><circle cx="41.39" cy="101.24" r="1.27" fill="#E8A24A" opacity="0.79"/><circle cx="39.04" cy="100.12" r="1.32" fill="#E8A24A" opacity="0.82"/><circle cx="36.58" cy="99.14" r="1.37" fill="#E8A24A" opacity="0.84"/><circle cx="34.43" cy="97.64" r="1.41" fill="#E8A24A" opacity="0.86"/><circle cx="31.81" cy="96.75" r="1.44" fill="#E8A24A" opacity="0.88"/><circle cx="30.37" cy="94.33" r="1.47" fill="#E8A24A" opacity="0.90"/><circle cx="28.58" cy="92.43" r="1.49" fill="#E8A24A" opacity="0.92"/><circle cx="25.78" cy="91.47" r="1.51" fill="#E8A24A" opacity="0.93"/><circle cx="24.49" cy="89.06" r="1.51" fill="#E8A24A" opacity="0.94"/><circle cx="23.32" cy="86.64" r="1.51" fill="#E8A24A" opacity="0.95"/><circle cx="21.37" cy="84.79" r="1.50" fill="#E8A24A" opacity="0.95"/><circle cx="20.65" cy="82.16" r="1.49" fill="#E8A24A" opacity="0.95"/><circle cx="18.79" cy="80.17" r="1.46" fill="#E8A24A" opacity="0.95"/><circle cx="17.10" cy="78.02" r="1.43" fill="#E8A24A" opacity="0.94"/><circle cx="16.29" cy="75.46" r="1.40" fill="#E8A24A" opacity="0.94"/><circle cx="15.70" cy="72.85" r="1.35" fill="#E8A24A" opacity="0.93"/><circle cx="15.65" cy="70.14" r="1.31" fill="#E8A24A" opacity="0.91"/><circle cx="14.99" cy="67.59" r="1.25" fill="#E8A24A" opacity="0.90"/><circle cx="14.91" cy="64.95" r="1.19" fill="#E8A24A" opacity="0.88"/><circle cx="13.83" cy="62.39" r="1.13" fill="#E8A24A" opacity="0.86"/><circle cx="14.11" cy="59.73" r="1.06" fill="#E8A24A" opacity="0.83"/><circle cx="13.85" cy="57.06" r="0.98" fill="#E8A24A" opacity="0.81"/><circle cx="14.74" cy="54.49" r="0.91" fill="#E8A24A" opacity="0.78"/><circle cx="15.28" cy="51.92" r="0.83" fill="#E8A24A" opacity="0.75"/><circle cx="15.00" cy="49.16" r="0.75" fill="#E8A24A" opacity="0.72"/><circle cx="15.46" cy="46.51" r="0.67" fill="#E8A24A" opacity="0.68"/><circle cx="16.49" cy="44.03" r="0.58" fill="#E8A24A" opacity="0.65"/><circle cx="17.54" cy="41.58" r="0.58" fill="#E8A24A" opacity="0.61"/><circle cx="18.66" cy="39.15" r="0.67" fill="#E8A24A" opacity="0.57"/><circle cx="20.03" cy="36.86" r="0.75" fill="#E8A24A" opacity="0.53"/><circle cx="22.04" cy="35.01" r="0.83" fill="#E8A24A" opacity="0.49"/><circle cx="23.21" cy="32.61" r="0.91" fill="#E8A24A" opacity="0.45"/><circle cx="25.03" cy="30.69" r="0.99" fill="#E8A24A" opacity="0.41"/><circle cx="27.12" cy="29.04" r="1.06" fill="#E8A24A" opacity="0.37"/><circle cx="28.96" cy="27.20" r="1.13" fill="#E8A24A" opacity="0.37"/><circle cx="30.67" cy="25.19" r="1.19" fill="#E8A24A" opacity="0.41"/><circle cx="32.74" cy="23.58" r="1.25" fill="#E8A24A" opacity="0.45"/><circle cx="34.54" cy="21.55" r="1.31" fill="#E8A24A" opacity="0.49"/><circle cx="36.60" cy="19.82" r="1.35" fill="#E8A24A" opacity="0.53"/><circle cx="39.29" cy="19.19" r="1.40" fill="#E8A24A" opacity="0.57"/><circle cx="41.39" cy="17.42" r="1.43" fill="#E8A24A" opacity="0.61"/><circle cx="43.85" cy="16.35" r="1.46" fill="#E8A24A" opacity="0.65"/><circle cx="46.40" cy="15.54" r="1.49" fill="#E8A24A" opacity="0.68"/><circle cx="49.19" cy="15.65" r="1.50" fill="#E8A24A" opacity="0.72"/><circle cx="51.80" cy="15.31" r="1.51" fill="#E8A24A" opacity="0.75"/><circle cx="54.39" cy="14.90" r="1.51" fill="#E8A24A" opacity="0.78"/><circle cx="57.00" cy="14.70" r="1.51" fill="#E8A24A" opacity="0.81"/><circle cx="59.61" cy="14.59" r="1.49" fill="#E8A24A" opacity="0.83"/><circle cx="62.26" cy="14.04" r="1.47" fill="#E8A24A" opacity="0.86"/><circle cx="64.95" cy="13.85" r="1.44" fill="#E8A24A" opacity="0.88"/><circle cx="67.58" cy="14.29" r="1.41" fill="#E8A24A" opacity="0.90"/><circle cx="70.09" cy="15.31" r="1.37" fill="#E8A24A" opacity="0.91"/><circle cx="72.72" cy="15.73" r="1.32" fill="#E8A24A" opacity="0.92"/><circle cx="75.31" cy="16.34" r="1.27" fill="#E8A24A" opacity="0.94"/><circle cx="77.41" cy="18.24" r="1.21" fill="#E8A24A" opacity="0.94"/><circle cx="80.15" cy="18.57" r="1.15" fill="#E8A24A" opacity="0.95"/><circle cx="82.68" cy="19.48" r="1.08" fill="#E8A24A" opacity="0.95"/><circle cx="84.87" cy="21.01" r="1.01" fill="#E8A24A" opacity="0.95"/><circle cx="87.05" cy="22.55" r="0.93" fill="#E8A24A" opacity="0.95"/><circle cx="88.92" cy="24.47" r="0.86" fill="#E8A24A" opacity="0.94"/><circle cx="90.63" cy="26.52" r="0.78" fill="#E8A24A" opacity="0.93"/><circle cx="93.13" cy="27.72" r="0.69" fill="#E8A24A" opacity="0.92"/><circle cx="94.44" cy="30.12" r="0.61" fill="#E8A24A" opacity="0.90"/><circle cx="96.64" cy="31.74" r="0.55" fill="#E8A24A" opacity="0.89"/><circle cx="98.41" cy="33.76" r="0.64" fill="#E8A24A" opacity="0.87"/><circle cx="99.15" cy="36.44" r="0.72" fill="#E8A24A" opacity="0.84"/><circle cx="100.45" cy="38.73" r="0.80" fill="#E8A24A" opacity="0.82"/><circle cx="102.32" cy="40.77" r="0.88" fill="#E8A24A" opacity="0.79"/><circle cx="103.06" cy="43.36" r="0.96" fill="#E8A24A" opacity="0.76"/><circle cx="103.19" cy="46.11" r="1.03" fill="#E8A24A" opacity="0.73"/><circle cx="103.85" cy="48.64" r="1.10" fill="#E8A24A" opacity="0.70"/><circle cx="104.47" cy="51.18" r="1.17" fill="#E8A24A" opacity="0.66"/><circle cx="105.98" cy="53.60" r="1.23" fill="#E8A24A" opacity="0.63"/><circle cx="106.13" cy="56.27" r="1.29" fill="#E8A24A" opacity="0.59"/><circle cx="105.32" cy="58.96" r="1.34" fill="#E8A24A" opacity="0.55"/><circle cx="106.28" cy="61.61" r="1.38" fill="#E8A24A" opacity="0.51"/><circle cx="106.33" cy="64.29" r="1.42" fill="#E8A24A" opacity="0.47"/><circle cx="101.95" cy="72.98" r="1.16" fill="#E8A24A" opacity="0.91"/><circle cx="100.66" cy="75.35" r="1.09" fill="#E8A24A" opacity="0.89"/><circle cx="99.91" cy="77.92" r="1.01" fill="#E8A24A" opacity="0.87"/><circle cx="98.21" cy="80.04" r="0.93" fill="#E8A24A" opacity="0.85"/><circle cx="96.78" cy="82.25" r="0.85" fill="#E8A24A" opacity="0.83"/><circle cx="96.48" cy="85.23" r="0.77" fill="#E8A24A" opacity="0.80"/><circle cx="94.51" cy="87.12" r="0.68" fill="#E8A24A" opacity="0.77"/><circle cx="92.66" cy="89.06" r="0.59" fill="#E8A24A" opacity="0.74"/><circle cx="91.25" cy="91.41" r="0.58" fill="#E8A24A" opacity="0.70"/><circle cx="88.80" cy="92.72" r="0.67" fill="#E8A24A" opacity="0.66"/><circle cx="87.14" cy="94.91" r="0.76" fill="#E8A24A" opacity="0.63"/><circle cx="84.92" cy="96.44" r="0.84" fill="#E8A24A" opacity="0.59"/><circle cx="82.20" cy="97.14" r="0.92" fill="#E8A24A" opacity="0.55"/><circle cx="79.92" cy="98.47" r="1.00" fill="#E8A24A" opacity="0.50"/><circle cx="77.56" cy="99.67" r="1.08" fill="#E8A24A" opacity="0.46"/><circle cx="75.08" cy="100.59" r="1.15" fill="#E8A24A" opacity="0.42"/><circle cx="72.73" cy="101.92" r="1.22" fill="#E8A24A" opacity="0.37"/><circle cx="70.04" cy="102.15" r="1.28" fill="#E8A24A" opacity="0.37"/><circle cx="67.49" cy="102.91" r="1.33" fill="#E8A24A" opacity="0.41"/><circle cx="64.81" cy="102.88" r="1.38" fill="#E8A24A" opacity="0.46"/><circle cx="62.25" cy="104.21" r="1.42" fill="#E8A24A" opacity="0.50"/><circle cx="59.55" cy="103.47" r="1.46" fill="#E8A24A" opacity="0.54"/><circle cx="56.90" cy="103.51" r="1.48" fill="#E8A24A" opacity="0.58"/><circle cx="54.22" cy="103.42" r="1.50" fill="#E8A24A" opacity="0.62"/><circle cx="51.50" cy="103.44" r="1.51" fill="#E8A24A" opacity="0.66"/><circle cx="49.04" cy="102.17" r="1.51" fill="#E8A24A" opacity="0.70"/><circle cx="46.27" cy="102.10" r="1.51" fill="#E8A24A" opacity="0.73"/><circle cx="43.95" cy="100.63" r="1.49" fill="#E8A24A" opacity="0.77"/><circle cx="41.48" cy="99.61" r="1.47" fill="#E8A24A" opacity="0.80"/><circle cx="39.11" cy="98.40" r="1.44" fill="#E8A24A" opacity="0.82"/><circle cx="37.19" cy="96.44" r="1.40" fill="#E8A24A" opacity="0.85"/><circle cx="34.66" cy="95.47" r="1.36" fill="#E8A24A" opacity="0.87"/><circle cx="32.78" cy="93.58" r="1.30" fill="#E8A24A" opacity="0.89"/><circle cx="30.96" cy="91.66" r="1.25" fill="#E8A24A" opacity="0.91"/><circle cx="28.26" cy="90.63" r="1.18" fill="#E8A24A" opacity="0.92"/><circle cx="27.14" cy="88.05" r="1.11" fill="#E8A24A" opacity="0.94"/><circle cx="25.14" cy="86.26" r="1.04" fill="#E8A24A" opacity="0.94"/><circle cx="23.30" cy="84.28" r="0.96" fill="#E8A24A" opacity="0.95"/><circle cx="22.10" cy="81.88" r="0.88" fill="#E8A24A" opacity="0.95"/><circle cx="21.13" cy="79.38" r="0.79" fill="#E8A24A" opacity="0.95"/><circle cx="19.77" cy="77.08" r="0.71" fill="#E8A24A" opacity="0.94"/><circle cx="18.75" cy="74.61" r="0.62" fill="#E8A24A" opacity="0.94"/><circle cx="17.62" cy="72.16" r="0.55" fill="#E8A24A" opacity="0.92"/><circle cx="17.91" cy="69.35" r="0.64" fill="#E8A24A" opacity="0.91"/><circle cx="16.77" cy="66.87" r="0.73" fill="#E8A24A" opacity="0.89"/><circle cx="16.88" cy="64.17" r="0.81" fill="#E8A24A" opacity="0.87"/><circle cx="16.67" cy="61.54" r="0.90" fill="#E8A24A" opacity="0.85"/><circle cx="15.94" cy="58.88" r="0.98" fill="#E8A24A" opacity="0.82"/><circle cx="16.47" cy="56.23" r="1.06" fill="#E8A24A" opacity="0.80"/><circle cx="16.71" cy="53.57" r="1.13" fill="#E8A24A" opacity="0.77"/><circle cx="16.90" cy="50.88" r="1.20" fill="#E8A24A" opacity="0.73"/><circle cx="17.32" cy="48.21" r="1.26" fill="#E8A24A" opacity="0.70"/><circle cx="18.76" cy="45.85" r="1.32" fill="#E8A24A" opacity="0.66"/><circle cx="19.48" cy="43.27" r="1.37" fill="#E8A24A" opacity="0.62"/><circle cx="20.71" cy="40.90" r="1.41" fill="#E8A24A" opacity="0.58"/><circle cx="21.94" cy="38.53" r="1.45" fill="#E8A24A" opacity="0.54"/><circle cx="23.10" cy="36.11" r="1.47" fill="#E8A24A" opacity="0.50"/><circle cx="24.90" cy="34.11" r="1.49" fill="#E8A24A" opacity="0.46"/><circle cx="26.46" cy="31.95" r="1.51" fill="#E8A24A" opacity="0.41"/><circle cx="28.29" cy="30.01" r="1.51" fill="#E8A24A" opacity="0.37"/><circle cx="29.72" cy="27.64" r="1.51" fill="#E8A24A" opacity="0.37"/><circle cx="31.97" cy="26.13" r="1.50" fill="#E8A24A" opacity="0.42"/><circle cx="33.94" cy="24.27" r="1.48" fill="#E8A24A" opacity="0.46"/><circle cx="36.11" cy="22.67" r="1.45" fill="#E8A24A" opacity="0.50"/><circle cx="38.91" cy="22.14" r="1.41" fill="#E8A24A" opacity="0.55"/><circle cx="41.07" cy="20.54" r="1.37" fill="#E8A24A" opacity="0.59"/><circle cx="43.30" cy="18.95" r="1.32" fill="#E8A24A" opacity="0.63"/><circle cx="45.89" cy="18.15" r="1.27" fill="#E8A24A" opacity="0.66"/><circle cx="48.73" cy="18.34" r="1.20" fill="#E8A24A" opacity="0.70"/><circle cx="51.29" cy="17.75" r="1.14" fill="#E8A24A" opacity="0.74"/><circle cx="53.82" cy="16.84" r="1.06" fill="#E8A24A" opacity="0.77"/><circle cx="56.50" cy="17.08" r="0.99" fill="#E8A24A" opacity="0.80"/><circle cx="59.12" cy="16.70" r="0.91" fill="#E8A24A" opacity="0.83"/><circle cx="61.75" cy="16.97" r="0.82" fill="#E8A24A" opacity="0.85"/><circle cx="64.46" cy="16.30" r="0.74" fill="#E8A24A" opacity="0.87"/><circle cx="67.14" cy="16.49" r="0.65" fill="#E8A24A" opacity="0.89"/><circle cx="69.82" cy="16.85" r="0.56" fill="#E8A24A" opacity="0.91"/><circle cx="72.13" cy="18.56" r="0.61" fill="#E8A24A" opacity="0.93"/><circle cx="74.91" cy="18.61" r="0.70" fill="#E8A24A" opacity="0.94"/><circle cx="77.37" cy="19.67" r="0.78" fill="#E8A24A" opacity="0.94"/><circle cx="79.46" cy="21.47" r="0.87" fill="#E8A24A" opacity="0.95"/><circle cx="82.31" cy="21.81" r="0.95" fill="#E8A24A" opacity="0.95"/><circle cx="84.67" cy="23.14" r="1.03" fill="#E8A24A" opacity="0.95"/><circle cx="86.22" cy="25.57" r="1.10" fill="#E8A24A" opacity="0.94"/><circle cx="88.96" cy="26.43" r="1.17" fill="#E8A24A" opacity="0.93"/><circle cx="90.39" cy="28.83" r="1.24" fill="#E8A24A" opacity="0.92"/><circle cx="92.33" cy="30.66" r="1.30" fill="#E8A24A" opacity="0.91"/><circle cx="94.62" cy="32.23" r="1.35" fill="#E8A24A" opacity="0.89"/><circle cx="96.07" cy="34.52" r="1.40" fill="#E8A24A" opacity="0.87"/><circle cx="96.73" cy="37.28" r="1.43" fill="#E8A24A" opacity="0.85"/><circle cx="98.39" cy="39.37" r="1.47" fill="#E8A24A" opacity="0.82"/><circle cx="99.69" cy="41.70" r="1.49" fill="#E8A24A" opacity="0.79"/><circle cx="100.49" cy="44.25" r="1.50" fill="#E8A24A" opacity="0.76"/><circle cx="101.18" cy="46.81" r="1.51" fill="#E8A24A" opacity="0.73"/><circle cx="102.08" cy="49.30" r="1.51" fill="#E8A24A" opacity="0.70"/><circle cx="103.22" cy="51.78" r="1.50" fill="#E8A24A" opacity="0.66"/><circle cx="102.64" cy="54.55" r="1.48" fill="#E8A24A" opacity="0.62"/><circle cx="103.66" cy="57.11" r="1.46" fill="#E8A24A" opacity="0.58"/><circle cx="103.59" cy="59.78" r="1.43" fill="#E8A24A" opacity="0.54"/><circle cx="102.92" cy="62.41" r="1.39" fill="#E8A24A" opacity="0.50"/><circle cx="103.14" cy="65.07" r="1.34" fill="#E8A24A" opacity="0.45"/><circle cx="103.17" cy="67.77" r="1.29" fill="#E8A24A" opacity="0.41"/><circle cx="102.46" cy="70.34" r="1.23" fill="#E8A24A" opacity="0.37"/></svg>