<svg xmlns="http://www.w3.org/2000/svg" viewBox="0 0 120 120" width="120" height="120"><circle cx="107.37" cy="60.00" r="0.54" fill="#2E4D63" opacity="0.95"/><circle cx="108.62" cy="62.68" r="0.62" fill="#2E4D63" opacity="0.95"/><circle cx="108.12" cy="65.33" r="0.70" fill="#2E4D63" opacity="0.94"/><circle cx="108.02" cy="68.01" r="0.78" fill="#2E4D63" opacity="0.94"/><circle cx="106.28" cy="70.37" r="0.86" fill="#2E4D63" opacity="0.93"/><circle cx="105.86" cy="72.97" r="0.93" fill="#2E4D63" opacity="0.92"/><circle cx="104.77" cy="75.37" r="1.00" fill="#2E4D63" opacity="0.90"/><circle cx="104.84" cy="78.21" r="1.07" fill="#2E4D63" opacity="0.89"/><circle cx="103.11" cy="80.34" r="1.14" fill="#2E4D63" opacity="0.87"/><circle cx="101.75" cy="82.59" r="1.20" fill="#2E4D63" opacity="0.85"/><circle cx="100.80" cy="85.08" r="1.26" fill="#2E4D63" opacity="0.82"/><circle cx="99.93" cy="87.69" r="1.31" fill="#2E4D63" opacity="0.80"/><circle cx="98.24" cy="89.76" r="1.35" fill="#2E4D63" opacity="0.77"/><circle cx="95.93" cy="91.30" r="1.39" fill="#2E4D63" opacity="0.74"/><circle cx="94.04" cy="93.12" r="1.43" fill="#2E4D63" opacity="0.71"/><circle cx="92.92" cy="95.76" r="1.46" fill="#2E4D63" opacity="0.68"/><circle cx="90.58" cy="97.13" r="1.48" fill="#2E4D63" opacity="0.64"/><circle cx="88.60" cy="98.91" r="1.50" fill="#2E4D63" opacity="0.61"/><circle cx="85.93" cy="99.69" r="1.51" fill="#2E4D63" opacity="0.57"/><circle cx="83.68" cy="101.02" r="1.51" fill="#2E4D63" opacity="0.54"/><circle cx="81.80" cy="103.07" r="1.51" fill="#2E4D63" opacity="0.50"/><circle cx="79.24" cy="103.86" r="1.50" fill="#2E4D63" opacity="0.46"/><circle cx="76.61" cy="104.38" r="1.48" fill="#2E4D63" opacity="0.42"/><circle cx="74.52" cy="106.41" r="1.46" fill="#2E4D63" opacity="0.38"/><circle cx="71.83" cy="106.72" r="1.43" fill="#2E4D63" opacity="0.36"/><circle cx="69.29" cy="107.54" r="1.39" fill="#2E4D63" opacity="0.40"/><circle cx="66.51" cy="106.95" r="1.35" fill="#2E4D63" opacity="0.44"/><circle cx="64.01" cy="108.35" r="1.31" fill="#2E4D63" opacity="0.48"/><circle cx="61.31" cy="107.36" r="1.26" fill="#2E4D63" opacity="0.52"/><circle cx="58.66" cy="108.50" r="1.20" fill="#2E4D63" opacity="0.55"/><circle cx="56.04" cy="107.77" r="1.14" fill="#2E4D63" opacity="0.59"/><circle cx="53.44" cy="107.32" r="1.07" fill="#2E4D63" opacity="0.63"/><circle cx="50.78" cy="107.18" r="1.00" fill="#2E4D63" opacity="0.66"/><circle cx="48.07" cy="107.13" r="0.93" fill="#2E4D63" opacity="0.69"/><circle cx="45.77" cy="105.49" r="0.86" fill="#2E4D63" opacity="0.73"/><circle cx="43.36" cy="104.45" r="0.78" fill="#2E4D63" opacity="0.76"/><circle cx="40.70" cy="103.99" r="0.70" fill="#2E4D63" opacity="0.78"/><circle cx="38.50" cy="102.49" r="0.62" fill="#2E4D63" opacity="0.81"/><circle cx="36.28" cy="101.08" r="0.54" fill="#2E4D63" opacity="0.84"/><circle cx="34.01" cy="99.78" r="0.62" fill="#2E4D63" opacity="0.86"/><circle cx="31.96" cy="98.16" r="0.70" fill="#2E4D63" opacity="0.88"/><circle cx="29.76" cy="96.72" r="0.78" fill="#2E4D63" opacity="0.90"/><circle cx="27.67" cy="95.12" r="0.86" fill="#2E4D63" opacity="0.91"/><circle cx="25.80" cy="93.27" r="0.93" fill="#2E4D63" opacity="0.92"/><circle cx="23.52" cy="91.77" r="1.00" fill="#2E4D63" opacity="0.93"/><circle cx="22.36" cy="89.30" r="1.07" fill="#2E4D63" opacity="0.94"/><circle cx="20.55" cy="87.35" r="1.14" fill="#2E4D63" opacity="0.95"/><circle cx="19.50" cy="84.89" r="1.20" fill="#2E4D63" opacity="0.95"/><circle cx="17.98" cy="82.74" r="1.26" fill="#2E4D63" opacity="0.95"/><circle cx="17.22" cy="80.19" r="1.31" fill="#2E4D63" opacity="0.95"/><circle cx="15.86" cy="77.93" r="1.35" fill="#2E4D63" opacity="0.94"/><circle cx="15.26" cy="75.36" r="1.39" fill="#2E4D63" opacity="0.93"/><circle cx="13.49" cy="73.15" r="1.43" fill="#2E4D63" opacity="0.92"/><circle cx="13.09" cy="70.51" r="1.46" fill="#2E4D63" opacity="0.91"/><circle cx="13.10" cy="67.83" r="1.48" fill="#2E4D63" opacity="0.90"/><circle cx="12.33" cy="65.28" r="1.50" fill="#2E4D63" opacity="0.88"/><circle cx="11.45" cy="62.68" r="1.51" fill="#2E4D63" opacity="0.86"/><circle cx="12.57" cy="60.00" r="1.51" fill="#2E4D63" opacity="0.84"/><circle cx="11.61" cy="57.33" r="1.51" fill="#2E4D63" opacity="0.81"/><circle cx="12.39" cy="54.73" r="1.50" fill="#2E4D63" opacity="0.78"/><circle cx="12.66" cy="52.10" r="1.48" fill="#2E4D63" opacity="0.76"/><circle cx="12.69" cy="49.40" r="1.46" fill="#2E4D63" opacity="0.73"/><circle cx="13.96" cy="46.98" r="1.43" fill="#2E4D63" opacity="0.69"/><circle cx="14.59" cy="44.41" r="1.39" fill="#2E4D63" opacity="0.66"/><circle cx="15.28" cy="41.84" r="1.35" fill="#2E4D63" opacity="0.63"/><circle cx="15.96" cy="39.22" r="1.31" fill="#2E4D63" opacity="0.59"/><circle cx="17.98" cy="37.26" r="1.26" fill="#2E4D63" opacity="0.55"/><circle cx="18.70" cy="34.61" r="1.20" fill="#2E4D63" opacity="0.52"/><circle cx="20.31" cy="32.48" r="1.14" fill="#2E4D63" opacity="0.48"/><circle cx="21.97" cy="30.40" r="1.07" fill="#2E4D63" opacity="0.44"/><circle cx="23.91" cy="28.57" r="1.00" fill="#2E4D63" opacity="0.40"/><circle cx="25.75" cy="26.68" r="0.93" fill="#2E4D63" opacity="0.36"/><circle cx="27.93" cy="25.16" r="0.86" fill="#2E4D63" opacity="0.38"/><circle cx="29.82" cy="23.36" r="0.78" fill="#2E4D63" opacity="0.42"/><circle cx="31.94" cy="21.82" r="0.70" fill="#2E4D63" opacity="0.46"/><circle cx="33.56" cy="19.53" r="0.62" fill="#2E4D63" opacity="0.50"/><circle cx="36.18" cy="18.74" r="0.54" fill="#2E4D63" opacity="0.54"/><circle cx="38.55" cy="17.60" r="0.62" fill="#2E4D63" opacity="0.57"/><circle cx="40.96" cy="16.59" r="0.70" fill="#2E4D63" opacity="0.61"/><circle cx="43.00" cy="14.59" r="0.78" fill="#2E4D63" opacity="0.64"/><circle cx="45.51" cy="13.68" r="0.86" fill="#2E4D63" opacity="0.68"/><circle cx="48.16" cy="13.23" r="0.93" fill="#2E4D63" opacity="0.71"/><circle cx="50.86" cy="13.20" r="1.00" fill="#2E4D63" opacity="0.74"/><circle cx="53.46" cy="12.82" r="1.07" fill="#2E4D63" opacity="0.77"/><circle cx="56.06" cy="12.46" r="1.14" fill="#2E4D63" opacity="0.80"/><circle cx="58.68" cy="12.08" r="1.20" fill="#2E4D63" opacity="0.82"/><circle cx="61.31" cy="12.51" r="1.26" fill="#2E4D63" opacity="0.85"/><circle cx="63.96" cy="12.24" r="1.31" fill="#2E4D63" opacity="0.87"/><circle cx="66.55" cy="12.79" r="1.35" fill="#2E4D63" opacity="0.89"/><circle cx="69.33" cy="12.24" r="1.39" fill="#2E4D63" opacity="0.90"/><circle cx="71.95" cy="12.81" r="1.43" fill="#2E4D63" opacity="0.92"/><circle cx="74.35" cy="14.12" r="1.46" fill="#2E4D63" opacity="0.93"/><circle cx="76.70" cy="15.39" r="1.48" fill="#2E4D63" opacity="0.94"/><circle cx="79.55" cy="15.43" r="1.50" fill="#2E4D63" opacity="0.94"/><circle cx="81.55" cy="17.42" r="1.51" fill="#2E4D63" opacity="0.95"/><circle cx="83.90" cy="18.61" r="1.51" fill="#2E4D63" opacity="0.95"/><circle cx="85.86" cy="20.42" r="1.51" fill="#2E4D63" opacity="0.95"/><circle cx="88.33" cy="21.46" r="1.50" fill="#2E4D63" opacity="0.94"/><circle cx="90.49" cy="22.98" r="1.48" fill="#2E4D63" opacity="0.94"/><circle cx="92.51" cy="24.68" r="1.46" fill="#2E4D63" opacity="0.93"/><circle cx="94.10" cy="26.83" r="1.43" fill="#2E4D63" opacity="0.92"/><circle cx="96.20" cy="28.47" r="1.39" fill="#2E4D63" opacity="0.90"/><circle cx="97.32" cy="30.96" r="1.35" fill="#2E4D63" opacity="0.89"/><circle cx="99.17" cy="32.84" r="1.31" fill="#2E4D63" opacity="0.87"/><circle cx="100.39" cy="35.17" r="1.26" fill="#2E4D63" opacity="0.85"/><circle cx="102.09" cy="37.22" r="1.20" fill="#2E4D63" opacity="0.82"/><circle cx="102.81" cy="39.80" r="1.14" fill="#2E4D63" opacity="0.80"/><circle cx="103.83" cy="42.20" r="1.07" fill="#2E4D63" opacity="0.77"/><circle cx="105.13" cy="44.51" r="1.00" fill="#2E4D63" opacity="0.74"/><circle cx="105.82" cy="47.04" r="0.93" fill="#2E4D63" opacity="0.71"/><circle cx="106.96" cy="49.48" r="0.86" fill="#2E4D63" opacity="0.68"/><circle cx="107.39" cy="52.09" r="0.78" fill="#2E4D63" opacity="0.64"/><circle cx="108.07" cy="54.68" r="0.70" fill="#2E4D63" opacity="0.61"/><circle cx="108.15" cy="57.34" r="0.62" fill="#2E4D63" opacity="0.57"/><circle cx="105.63" cy="66.90" r="1.45" fill="#2E4D63" opacity="0.94"/><circle cx="105.39" cy="69.56" r="1.48" fill="#2E4D63" opacity="0.93"/><circle cx="104.08" cy="71.98" r="1.50" fill="#2E4D63" opacity="0.92"/><circle cx="103.23" cy="74.47" r="1.51" fill="#2E4D63" opacity="0.91"/><circle cx="103.21" cy="77.29" r="1.51" fill="#2E4D63" opacity="0.89"/><circle cx="101.05" cy="79.24" r="1.51" fill="#2E4D63" opacity="0.87"/><circle cx="100.60" cy="81.96" r="1.50" fill="#2E4D63" opacity="0.85"/><circle cx="99.17" cy="84.21" r="1.48" fill="#2E4D63" opacity="0.82"/><circle cx="97.00" cy="85.93" r="1.45" fill="#2E4D63" opacity="0.80"/><circle cx="96.34" cy="88.72" r="1.42" fill="#2E4D63" opacity="0.77"/><circle cx="94.69" cy="90.82" r="1.38" fill="#2E4D63" opacity="0.74"/><circle cx="92.59" cy="92.50" r="1.34" fill="#2E4D63" opacity="0.70"/><circle cx="90.76" cy="94.44" r="1.29" fill="#2E4D63" opacity="0.67"/><circle cx="88.80" cy="96.24" r="1.23" fill="#2E4D63" opacity="0.63"/><circle cx="86.10" cy="97.05" r="1.17" fill="#2E4D63" opacity="0.60"/><circle cx="84.22" cy="98.96" r="1.10" fill="#2E4D63" opacity="0.56"/><circle cx="81.92" cy="100.27" r="1.03" fill="#2E4D63" opacity="0.52"/><circle cx="79.77" cy="101.89" r="0.96" fill="#2E4D63" opacity="0.48"/><circle cx="77.30" cy="102.92" r="0.88" fill="#2E4D63" opacity="0.44"/><circle cx="74.81" cy="103.88" r="0.80" fill="#2E4D63" opacity="0.40"/><circle cx="72.17" cy="104.32" r="0.72" fill="#2E4D63" opacity="0.35"/><circle cx="69.69" cy="105.38" r="0.64" fill="#2E4D63" opacity="0.39"/><circle cx="67.01" cy="105.57" r="0.55" fill="#2E4D63" opacity="0.43"/><circle cx="64.37" cy="105.91" r="0.61" fill="#2E4D63" opacity="0.47"/><circle cx="61.70" cy="105.42" r="0.69" fill="#2E4D63" opacity="0.51"/><circle cx="59.08" cy="105.16" r="0.78" fill="#2E4D63" opacity="0.55"/><circle cx="56.47" cy="105.17" r="0.86" fill="#2E4D63" opacity="0.59"/><circle cx="53.83" cy="105.22" r="0.93" fill="#2E4D63" opacity="0.63"/><circle cx="51.31" cy="104.43" r="1.01" fill="#2E4D63" opacity="0.66"/><circle cx="48.50" cy="104.87" r="1.08" fill="#2E4D63" opacity="0.70"/><circle cx="46.06" cy="103.76" r="1.15" fill="#2E4D63" opacity="0.73"/><circle cx="43.52" cy="102.97" r="1.21" fill="#2E4D63" opacity="0.76"/><circle cx="41.07" cy="101.95" r="1.27" fill="#2E4D63" opacity="0.79"/><circle cx="38.65" cy="100.86" r="1.32" fill="#2E4D63" opacity="0.82"/><circle cx="36.48" cy="99.33" r="1.37" fill="#2E4D63" opacity="0.84"/><circle cx="34.64" cy="97.33" r="1.41" fill="#2E4D63" opacity="0.86"/><circle cx="31.84" cy="96.71" r="1.44" fill="#2E4D63" opacity="0.88"/><circle cx="29.82" cy="94.97" r="1.47" fill="#2E4D63" opacity="0.90"/><circle cx="28.10" cy="92.92" r="1.49" fill="#2E4D63" opacity="0.92"/><circle cx="26.22" cy="91.06" r="1.51" fill="#2E4D63" opacity="0.93"/><circle cx="24.35" cy="89.18" r="1.51" fill="#2E4D63" opacity="0.94"/><circle cx="23.42" cy="86.57" r="1.51" fill="#2E4D63" opacity="0.95"/><circle cx="21.13" cy="84.94" r="1.50" fill="#2E4D63" opacity="0.95"/><circle cx="20.37" cy="82.32" r="1.49" fill="#2E4D63" opacity="0.95"/><circle cx="19.38" cy="79.89" r="1.46" fill="#2E4D63" opacity="0.95"/><circle cx="18.05" cy="77.62" r="1.43" fill="#2E4D63" opacity="0.94"/><circle cx="16.47" cy="75.40" r="1.40" fill="#2E4D63" opacity="0.94"/><circle cx="16.38" cy="72.65" r="1.35" fill="#2E4D63" opacity="0.93"/><circle cx="14.98" cy="70.29" r="1.31" fill="#2E4D63" opacity="0.91"/><circle cx="14.12" cy="67.74" r="1.25" fill="#2E4D63" opacity="0.90"/><circle cx="14.44" cy="65.00" r="1.19" fill="#2E4D63" opacity="0.88"/><circle cx="14.39" cy="62.36" r="1.13" fill="#2E4D63" opacity="0.86"/><circle cx="14.19" cy="59.73" r="1.06" fill="#2E4D63" opacity="0.83"/><circle cx="13.99" cy="57.07" r="0.98" fill="#2E4D63" opacity="0.81"/><circle cx="14.11" cy="54.41" r="0.91" fill="#2E4D63" opacity="0.78"/><circle cx="14.73" cy="51.82" r="0.83" fill="#2E4D63" opacity="0.75"/><circle cx="15.24" cy="49.21" r="0.75" fill="#2E4D63" opacity="0.72"/><circle cx="16.71" cy="46.89" r="0.67" fill="#2E4D63" opacity="0.68"/><circle cx="17.44" cy="44.38" r="0.58" fill="#2E4D63" opacity="0.65"/><circle cx="18.27" cy="41.89" r="0.58" fill="#2E4D63" opacity="0.61"/><circle cx="18.76" cy="39.20" r="0.67" fill="#2E4D63" opacity="0.57"/><circle cx="20.57" cy="37.18" r="0.75" fill="#2E4D63" opacity="0.53"/><circle cx="21.63" cy="34.74" r="0.83" fill="#2E4D63" opacity="0.49"/><circle cx="23.79" cy="33.04" r="0.91" fill="#2E4D63" opacity="0.45"/><circle cx="25.35" cy="30.96" r="0.99" fill="#2E4D63" opacity="0.41"/><circle cx="26.87" cy="28.81" r="1.06" fill="#2E4D63" opacity="0.37"/><circle cx="28.32" cy="26.53" r="1.13" fill="#2E4D63" opacity="0.37"/><circle cx="30.28" cy="24.74" r="1.19" fill="#2E4D63" opacity="0.41"/><circle cx="32.38" cy="23.10" r="1.25" fill="#2E4D63" opacity="0.45"/><circle cx="34.86" cy="22.03" r="1.31" fill="#2E4D63" opacity="0.49"/><circle cx="36.92" cy="20.37" r="1.35" fill="#2E4D63" opacity="0.53"/><circle cx="39.28" cy="19.17" r="1.40" fill="#2E4D63" opacity="0.57"/><circle cx="41.66" cy="18.04" r="1.43" fill="#2E4D63" opacity="0.61"/><circle cx="44.28" cy="17.52" r="1.46" fill="#2E4D63" opacity="0.65"/><circle cx="46.43" cy="15.62" r="1.49" fill="#2E4D63" opacity="0.68"/><circle cx="49.25" cy="15.88" r="1.50" fill="#2E4D63" opacity="0.72"/><circle cx="51.60" cy="14.24" r="1.51" fill="#2E4D63" opacity="0.75"/><circle cx="54.26" cy="13.89" r="1.51" fill="#2E4D63" opacity="0.78"/><circle cx="57.02" cy="14.95" r="1.51" fill="#2E4D63" opacity="0.81"/><circle cx="59.61" cy="14.22" r="1.49" fill="#2E4D63" opacity="0.83"/><circle cx="62.27" cy="13.76" r="1.47" fill="#2E4D63" opacity="0.86"/><circle cx="64.96" cy="13.75" r="1.44" fill="#2E4D63" opacity="0.88"/><circle cx="67.49" cy="14.85" r="1.41" fill="#2E4D63" opacity="0.90"/><circle cx="70.02" cy="15.61" r="1.37" fill="#2E4D63" opacity="0.91"/><circle cx="72.54" cy="16.34" r="1.32" fill="#2E4D63" opacity="0.92"/><circle cx="75.38" cy="16.14" r="1.27" fill="#2E4D63" opacity="0.94"/><circle cx="77.48" cy="18.07" r="1.21" fill="#2E4D63" opacity="0.94"/><circle cx="80.10" cy="18.67" r="1.15" fill="#2E4D63" opacity="0.95"/><circle cx="82.14" cy="20.45" r="1.08" fill="#2E4D63" opacity="0.95"/><circle cx="84.67" cy="21.33" r="1.01" fill="#2E4D63" opacity="0.95"/><circle cx="87.22" cy="22.31" r="0.93" fill="#2E4D63" opacity="0.95"/><circle cx="88.60" cy="24.86" r="0.86" fill="#2E4D63" opacity="0.94"/><circle cx="91.25" cy="25.83" r="0.78" fill="#2E4D63" opacity="0.93"/><circle cx="92.84" cy="28.00" r="0.69" fill="#2E4D63" opacity="0.92"/><circle cx="95.04" cy="29.59" r="0.61" fill="#2E4D63" opacity="0.90"/><circle cx="96.53" cy="31.82" r="0.55" fill="#2E4D63" opacity="0.89"/><circle cx="97.53" cy="34.36" r="0.64" fill="#2E4D63" opacity="0.87"/><circle cx="99.77" cy="36.07" r="0.72" fill="#2E4D63" opacity="0.84"/><circle cx="100.56" cy="38.68" r="0.80" fill="#2E4D63" opacity="0.82"/><circle cx="101.11" cy="41.32" r="0.88" fill="#2E4D63" opacity="0.79"/><circle cx="102.09" cy="43.73" r="0.96" fill="#2E4D63" opacity="0.76"/><circle cx="103.63" cy="45.97" r="1.03" fill="#2E4D63" opacity="0.73"/><circle cx="104.31" cy="48.52" r="1.10" fill="#2E4D63" opacity="0.70"/><circle cx="104.68" cy="51.13" r="1.17" fill="#2E4D63" opacity="0.66"/><circle cx="104.89" cy="53.76" r="1.23" fill="#2E4D63" opacity="0.63"/><circle cx="105.47" cy="56.33" r="1.29" fill="#2E4D63" opacity="0.59"/><circle cx="105.56" cy="58.95" r="1.34" fill="#2E4D63" opacity="0.55"/><circle cx="106.30" cy="61.61" r="1.38" fill="#2E4D63" opacity="0.51"/><circle cx="104.93" cy="64.16" r="1.42" fill="#2E4D63" opacity="0.47"/><circle cx="102.07" cy="73.02" r="1.16" fill="#2E4D63" opacity="0.91"/><circle cx="101.32" cy="75.60" r="1.09" fill="#2E4D63" opacity="0.89"/><circle cx="99.35" cy="77.67" r="1.01" fill="#2E4D63" opacity="0.87"/><circle cx="99.23" cy="80.57" r="0.93" fill="#2E4D63" opacity="0.85"/><circle cx="97.64" cy="82.77" r="0.85" fill="#2E4D63" opacity="0.83"/><circle cx="96.40" cy="85.17" r="0.77" fill="#2E4D63" opacity="0.80"/><circle cx="94.11" cy="86.80" r="0.68" fill="#2E4D63" opacity="0.77"/><circle cx="92.50" cy="88.91" r="0.59" fill="#2E4D63" opacity="0.74"/><circle cx="90.70" cy="90.86" r="0.58" fill="#2E4D63" opacity="0.70"/><circle cx="89.33" cy="93.33" r="0.67" fill="#2E4D63" opacity="0.66"/><circle cx="86.89" cy="94.59" r="0.76" fill="#2E4D63" opacity="0.63"/><circle cx="84.54" cy="95.89" r="0.84" fill="#2E4D63" opacity="0.59"/><circle cx="82.36" cy="97.40" r="0.92" fill="#2E4D63" opacity="0.55"/><circle cx="79.94" cy="98.50" r="1.00" fill="#2E4D63" opacity="0.50"/><circle cx="77.42" cy="99.35" r="1.08" fill="#2E4D63" opacity="0.46"/><circle cx="75.01" cy="100.41" r="1.15" fill="#2E4D63" opacity="0.42"/><circle cx="72.83" cy="102.26" r="1.22" fill="#2E4D63" opacity="0.37"/><circle cx="70.05" cy="102.19" r="1.28" fill="#2E4D63" opacity="0.37"/><circle cx="67.62" cy="103.65" r="1.33" fill="#2E4D63" opacity="0.41"/><circle cx="64.83" cy="103.05" r="1.38" fill="#2E4D63" opacity="0.46"/><circle cx="62.20" cy="103.29" r="1.42" fill="#2E4D63" opacity="0.50"/><circle cx="59.55" cy="103.69" r="1.46" fill="#2E4D63" opacity="0.54"/><circle cx="56.92" cy="103.12" r="1.48" fill="#2E4D63" opacity="0.58"/><circle cx="54.26" cy="103.12" r="1.50" fill="#2E4D63" opacity="0.62"/><circle cx="51.49" cy="103.51" r="1.51" fill="#2E4D63" opacity="0.66"/><circle cx="48.87" cy="102.81" r="1.51" fill="#2E4D63" opacity="0.70"/><circle cx="46.32" cy="101.95" r="1.51" fill="#2E4D63" opacity="0.73"/><circle cx="43.88" cy="100.80" r="1.49" fill="#2E4D63" opacity="0.77"/><circle cx="41.25" cy="100.11" r="1.47" fill="#2E4D63" opacity="0.80"/><circle cx="38.82" cy="98.93" r="1.44" fill="#2E4D63" opacity="0.82"/><circle cx="36.79" cy="97.09" r="1.40" fill="#2E4D63" opacity="0.85"/><circle cx="34.43" cy="95.80" r="1.36" fill="#2E4D63" opacity="0.87"/><circle cx="32.90" cy="93.43" r="1.30" fill="#2E4D63" opacity="0.89"/><circle cx="30.25" cy="92.44" r="1.25" fill="#2E4D63" opacity="0.91"/><circle cx="28.62" cy="90.28" r="1.18" fill="#2E4D63" opacity="0.92"/><circle cx="26.50" cy="88.59" r="1.11" fill="#2E4D63" opacity="0.94"/><circle cx="24.94" cy="86.40" r="1.04" fill="#2E4D63" opacity="0.94"/><circle cx="23.83" cy="83.93" r="0.96" fill="#2E4D63" opacity="0.95"/><circle cx="22.73" cy="81.51" r="0.88" fill="#2E4D63" opacity="0.95"/><circle cx="20.36" cy="79.76" r="0.79" fill="#2E4D63" opacity="0.95"/><circle cx="20.29" cy="76.86" r="0.71" fill="#2E4D63" opacity="0.94"/><circle cx="18.87" cy="74.57" r="0.62" fill="#2E4D63" opacity="0.94"/><circle cx="18.23" cy="71.99" r="0.55" fill="#2E4D63" opacity="0.92"/><circle cx="17.64" cy="69.41" r="0.64" fill="#2E4D63" opacity="0.91"/><circle cx="16.52" cy="66.91" r="0.73" fill="#2E4D63" opacity="0.89"/><circle cx="15.84" cy="64.28" r="0.81" fill="#2E4D63" opacity="0.87"/><circle cx="16.69" cy="61.54" r="0.90" fill="#2E4D63" opacity="0.85"/><circle cx="16.11" cy="58.88" r="0.98" fill="#2E4D63" opacity="0.82"/><circle cx="16.77" cy="56.25" r="1.06" fill="#2E4D63" opacity="0.80"/><circle cx="16.71" cy="53.57" r="1.13" fill="#2E4D63" opacity="0.77"/><circle cx="17.41" cy="50.99" r="1.20" fill="#2E4D63" opacity="0.73"/><circle cx="18.36" cy="48.50" r="1.26" fill="#2E4D63" opacity="0.70"/><circle cx="19.14" cy="45.98" r="1.32" fill="#2E4D63" opacity="0.66"/><circle cx="20.01" cy="43.49" r="1.37" fill="#2E4D63" opacity="0.62"/><circle cx="20.19" cy="40.65" r="1.41" fill="#2E4D63" opacity="0.58"/><circle cx="21.96" cy="38.54" r="1.45" fill="#2E4D63" opacity="0.54"/><circle cx="23.67" cy="36.48" r="1.47" fill="#2E4D63" opacity="0.50"/><circle cx="24.38" cy="33.72" r="1.49" fill="#2E4D63" opacity="0.46"/><circle cx="25.95" cy="31.52" r="1.51" fill="#2E4D63" opacity="0.41"/><circle cx="28.32" cy="30.04" r="1.51" fill="#2E4D63" opacity="0.37"/><circle cx="30.51" cy="28.49" r="1.51" fill="#2E4D63" opacity="0.37"/><circle cx="32.44" cy="26.69" r="1.50" fill="#2E4D63" opacity="0.42"/><circle cx="34.60" cy="25.19" r="1.48" fill="#2E4D63" opacity="0.46"/><circle cx="36.58" cy="23.40" r="1.45" fill="#2E4D63" opacity="0.50"/><circle cx="39.03" cy="22.36" r="1.41" fill="#2E4D63" opacity="0.55"/><circle cx="41.27" cy="20.96" r="1.37" fill="#2E4D63" opacity="0.59"/><circle cx="43.68" cy="19.86" r="1.32" fill="#2E4D63" opacity="0.63"/><circle cx="46.01" cy="18.52" r="1.27" fill="#2E4D63" opacity="0.66"/><circle cx="48.45" cy="17.30" r="1.20" fill="#2E4D63" opacity="0.70"/><circle cx="51.11" cy="16.87" r="1.14" fill="#2E4D63" opacity="0.74"/><circle cx="53.82" cy="16.89" r="1.06" fill="#2E4D63" opacity="0.77"/><circle cx="56.46" cy="16.59" r="0.99" fill="#2E4D63" opacity="0.80"/><circle cx="59.11" cy="16.29" r="0.91" fill="#2E4D63" opacity="0.83"/><circle cx="61.77" cy="16.53" r="0.82" fill="#2E4D63" opacity="0.85"/><circle cx="64.41" cy="16.78" r="0.74" fill="#2E4D63" opacity="0.87"/><circle cx="66.98" cy="17.52" r="0.65" fill="#2E4D63" opacity="0.89"/><circle cx="69.62" cy="17.72" r="0.56" fill="#2E4D63" opacity="0.91"/><circle cx="72.46" cy="17.43" r="0.61" fill="#2E4D63" opacity="0.93"/><circle cx="74.62" cy="19.41" r="0.70" fill="#2E4D63" opacity="0.94"/><circle cx="77.28" cy="19.88" r="0.78" fill="#2E4D63" opacity="0.94"/><circle cx="79.78" cy="20.85" r="0.87" fill="#2E4D63" opacity="0.95"/><circle cx="82.30" cy="21.83" r="0.95" fill="#2E4D63" opacity="0.95"/><circle cx="84.07" cy="24.04" r="1.03" fill="#2E4D63" opacity="0.95"/><circle cx="86.26" cy="25.51" r="1.10" fill="#2E4D63" opacity="0.94"/><circle cx="88.29" cy="27.20" r="1.17" fill="#2E4D63" opacity="0.93"/><circle cx="90.39" cy="28.83" r="1.24" fill="#2E4D63" opacity="0.92"/><circle cx="92.29" cy="30.70" r="1.30" fill="#2E4D63" opacity="0.91"/><circle cx="94.58" cy="32.26" r="1.35" fill="#2E4D63" opacity="0.89"/><circle cx="96.09" cy="34.51" r="1.40" fill="#2E4D63" opacity="0.87"/><circle cx="97.60" cy="36.74" r="1.43" fill="#2E4D63" opacity="0.85"/><circle cx="97.87" cy="39.65" r="1.47" fill="#2E4D63" opacity="0.82"/><circle cx="99.06" cy="41.99" r="1.49" fill="#2E4D63" opacity="0.79"/><circle cx="100.99" cy="44.05" r="1.50" fill="#2E4D63" opacity="0.76"/><circle cx="102.14" cy="46.50" r="1.51" fill="#2E4D63" opacity="0.73"/><circle cx="102.30" cy="49.24" r="1.51" fill="#2E4D63" opacity="0.70"/><circle cx="103.03" cy="51.81" r="1.50" fill="#2E4D63" opacity="0.66"/><circle cx="102.61" cy="54.56" r="1.48" fill="#2E4D63" opacity="0.62"/><circle cx="103.43" cy="57.13" r="1.46" fill="#2E4D63" opacity="0.58"/><circle cx="104.29" cy="59.78" r="1.43" fill="#2E4D63" opacity="0.54"/><circle cx="104.08" cy="62.47" r="1.39" fill="#2E4D63" opacity="0.50"/><circle cx="103.89" cy="65.16" r="1.34" fill="#2E4D63" opacity="0.45"/><circle cx="103.66" cy="67.85" r="1.29" fill="#2E4D63" opacity="0.41"/><circle cx="102.09" cy="70.25" r="1.23" fill="#2E4D63" opacity="0.37"/></svg>